<svg width="71" height="61" viewBox="0 0 71 61" fill="none" xmlns="http://www.w3.org/2000/svg">
<path fill-rule="evenodd" clip-rule="evenodd" d="M7.3209 2.64215C5.09088 7.35115 4.58338 16.6652 6.29085 21.5422C6.66115 22.6 7.05455 23.8686 7.16515 24.3616C7.43308 25.5577 10.9137 33.6569 12.3096 36.3335C13.6797 38.96 13.6543 38.9862 11.0265 37.6502C7.2467 35.7287 4.27363 31.7787 2.97653 26.9554C2.05725 23.537 0.930075 23.4739 1.0034 26.8449C1.13133 32.725 6.10133 39.0101 13.5143 42.6669C16.4549 44.1173 15.604 42.9647 22.1728 54.3985C24.9718 59.2708 25.1069 59.4269 26.5233 59.4269C28.2822 59.4269 28.5332 59.0405 29.5214 54.8116C30.5233 50.524 31.6489 46.8036 32.855 43.7926L33.7209 41.6308L32.7794 40.3392C32.2616 39.6288 31.7241 39.0464 31.5854 39.0449C31.1209 39.0401 29.013 43.8057 27.6907 47.8496L26.383 51.8493L24.8288 49.5805C23.3884 47.4772 18.8781 39.1441 17.7646 36.5281C13.7732 27.1514 15.4049 15.81 21.2289 12.4479C23.2828 11.2621 22.9055 9.80471 20.7434 10.5725C16.3206 12.1432 12.3128 18.8459 11.8847 25.3885C11.7878 26.8686 10.6718 24.2572 9.5497 19.9248C8.39838 15.4796 8.2988 6.87319 9.3614 3.6664C10.315 0.789153 8.60505 -0.0691833 7.3209 2.64215ZM60.6194 1.50593C60.5001 1.79608 60.5895 3.04787 60.8179 4.28788C62.0305 10.8705 61.6969 16.8218 59.8185 22.1193C58.5107 25.8074 57.9997 26.5924 57.9913 24.9265C57.9638 19.5599 54.2409 13.0468 49.9994 10.945C46.8483 9.38364 46.5535 10.4644 49.4441 12.9813C57.4815 19.9795 55.7788 34.1049 45.0297 49.6004L43.4418 51.8894L42.8897 49.985C41.4092 44.8783 40.8999 43.5657 38.9758 39.8967L36.9027 35.9435L38.5694 33.9256C39.4861 32.8159 41.3605 31.2282 42.7348 30.3974C44.1091 29.5667 45.1689 28.7056 45.0898 28.484C44.5928 27.0891 40.8639 28.6056 37.3782 31.62L34.9569 33.7139L32.8107 31.7916C30.5081 29.7292 26.7842 27.7405 25.6196 27.9516C24.3778 28.1765 24.5306 28.974 25.9439 29.6445C32.4987 32.7544 37.1677 41.0219 40.4824 55.3884C41.3194 59.0158 41.608 59.4269 43.3186 59.4269C44.7259 59.4269 44.8838 59.2576 47.0863 55.3884C48.444 53.0034 51.9778 47.0522 53.2694 44.9758C53.7617 44.1841 55.0359 43.3017 57.1271 42.3043C63.2577 39.38 68.0639 33.4872 69.0333 27.7069C69.7175 23.6254 68.1383 23.0145 67.0258 26.9304C65.6355 31.8248 62.2455 36.2216 58.4486 38.0556C56.5698 38.9632 56.5467 38.7871 58.1208 35.5437C65.2499 20.8547 66.6615 10.6021 62.6526 2.62973C61.9664 1.26515 60.9493 0.703009 60.6194 1.50593Z" fill="white"/>
<path d="M0.5 0.5H69.6994V59.9269H0.5V0.5Z" stroke="black"/>
<path d="M0.5 0.5H69.6994V59.9269H0.5V0.5Z" stroke="url(#paint0_linear)"/>
<defs>
<linearGradient id="paint0_linear" x1="35.0997" y1="0" x2="35.0997" y2="60.4269" gradientUnits="userSpaceOnUse">
<stop stop-color="white"/>
<stop offset="1" stop-color="white" stop-opacity="0"/>
</linearGradient>
</defs>
</svg>
